# xmcd
#
# Track frame offsets:
# 150
# 16944
# 45697
# 67594
# 83462
# 119500
# 139987
# 156929
# 186476
#
# Disc length: 2865 seconds
#
#
# Revision: 0
# Processed by: cddbd v1.5.2PL0 Copyright (c) Steve Scherf et al.
# Submitted via: FreeRIP 2.951 
#
DISCID=710b2f09
DTITLE=Eldkvarn - Svart Blogg
DYEAR=2007
DGENRE=Folk/Rock
TTITLE0=En ledig man
TTITLE1=Fulla för kärlekens skull
TTITLE2=Ett litet finger
TTITLE3=Inget bra för mig själv
TTITLE4=Blues för Bodil Malmsten
TTITLE5=Mörkret Knackar på min dörr
TTITLE6=Jag jagar ditt hjärta
TTITLE7=Min systers karneval
TTITLE8=Svart blogg
EXTD=
EXTT0=
EXTT1=
EXTT2=
EXTT3=
EXTT4=
EXTT5=
EXTT6=
EXTT7=
EXTT8=
PLAYORDER=
